<svg width="43" height="43" viewBox="0 0 43 43" fill="none" xmlns="http://www.w3.org/2000/svg">
<path d="M26.3376 11.825H13.7959L18.9917 6.62915C19.7084 5.91248 19.7084 4.83748 18.9917 4.12081C18.2751 3.40415 17.2001 3.40415 16.4834 4.12081L8.24172 12.3625C7.52506 13.0791 7.52506 14.1541 8.24172 14.8708L16.4834 23.2916C16.8417 23.65 17.2001 23.8291 17.7376 23.8291C18.2751 23.8291 18.6334 23.65 18.9917 23.2916C19.7084 22.575 19.7084 21.5 18.9917 20.7833L13.7959 15.4083H26.3376C29.3834 15.4083 31.7126 17.7375 31.7126 20.7833V37.625C31.7126 38.7 32.4292 39.4166 33.5042 39.4166C34.5792 39.4166 35.2959 38.7 35.2959 37.625V20.7833C35.2959 15.9458 31.1751 11.825 26.3376 11.825Z" fill="white"/>
</svg>
