<svg width="33" height="33" viewBox="0 0 33 33" fill="none" xmlns="http://www.w3.org/2000/svg">
<path d="M4.76596 9.53196H28.8936C29.2491 9.53196 29.5901 9.39073 29.8414 9.13935C30.0928 8.88798 30.234 8.54703 30.234 8.19153C30.234 7.83603 30.0928 7.49509 29.8414 7.24371C29.5901 6.99233 29.2491 6.8511 28.8936 6.8511H4.76596C4.41046 6.8511 4.06952 6.99233 3.81814 7.24371C3.56676 7.49509 3.42554 7.83603 3.42554 8.19153C3.42554 8.54703 3.56676 8.88798 3.81814 9.13935C4.06952 9.39073 4.41046 9.53196 4.76596 9.53196ZM28.8936 22.9362H4.76596C4.41046 22.9362 4.06952 23.0774 3.81814 23.3288C3.56676 23.5802 3.42554 23.9211 3.42554 24.2766C3.42554 24.6321 3.56676 24.9731 3.81814 25.2245C4.06952 25.4758 4.41046 25.6171 4.76596 25.6171H28.8936C29.2491 25.6171 29.5901 25.4758 29.8414 25.2245C30.0928 24.9731 30.234 24.6321 30.234 24.2766C30.234 23.9211 30.0928 23.5802 29.8414 23.3288C29.5901 23.0774 29.2491 22.9362 28.8936 22.9362ZM28.8936 17.5745H4.76596C4.41046 17.5745 4.06952 17.7157 3.81814 17.9671C3.56676 18.2185 3.42554 18.5594 3.42554 18.9149C3.42554 19.2704 3.56676 19.6114 3.81814 19.8628C4.06952 20.1141 4.41046 20.2554 4.76596 20.2554H28.8936C29.2491 20.2554 29.5901 20.1141 29.8414 19.8628C30.0928 19.6114 30.234 19.2704 30.234 18.9149C30.234 18.5594 30.0928 18.2185 29.8414 17.9671C29.5901 17.7157 29.2491 17.5745 28.8936 17.5745ZM28.8936 12.2128H4.76596C4.41046 12.2128 4.06952 12.354 3.81814 12.6054C3.56676 12.8568 3.42554 13.1977 3.42554 13.5532C3.42554 13.9087 3.56676 14.2497 3.81814 14.5011C4.06952 14.7524 4.41046 14.8937 4.76596 14.8937H28.8936C29.2491 14.8937 29.5901 14.7524 29.8414 14.5011C30.0928 14.2497 30.234 13.9087 30.234 13.5532C30.234 13.1977 30.0928 12.8568 29.8414 12.6054C29.5901 12.354 29.2491 12.2128 28.8936 12.2128Z" fill="white"/>
</svg>
