<svg width="33" height="33" viewBox="0 0 33 33" fill="none" xmlns="http://www.w3.org/2000/svg">
<path d="M27.1215 12.4572L8.3555 4.70952C7.64545 4.41569 6.86606 4.33145 6.10962 4.46679C5.35318 4.60213 4.65136 4.95138 4.08724 5.47319C3.52312 5.995 3.12032 6.66753 2.92654 7.41114C2.73275 8.15476 2.75609 8.93833 2.9938 9.6691L5.05805 16.1702L2.94018 22.6712C2.69605 23.4049 2.66863 24.1934 2.8612 24.9423C3.05376 25.6912 3.45816 26.3687 4.02593 26.8936C4.75598 27.5706 5.71122 27.9527 6.70678 27.9659C7.23589 27.9656 7.75972 27.8608 8.24827 27.6576L27.0812 19.9099C27.8147 19.6049 28.4414 19.0895 28.8822 18.4287C29.3231 17.7679 29.5584 16.9913 29.5584 16.197C29.5584 15.4026 29.3231 14.626 28.8822 13.9653C28.4414 13.3045 27.8147 12.789 27.0812 12.484L27.1215 12.4572ZM7.26976 25.151C7.0333 25.2485 6.77388 25.2764 6.52212 25.2313C6.27035 25.1861 6.03676 25.0699 5.8489 24.8963C5.67195 24.7272 5.54467 24.5129 5.48087 24.2766C5.41707 24.0403 5.41919 23.7911 5.48699 23.5559L7.44401 17.5106H25.8481L7.26976 25.151ZM7.44401 14.8297L5.44678 8.83804C5.37898 8.60286 5.37686 8.35361 5.44066 8.11731C5.50446 7.88102 5.63174 7.6667 5.80869 7.49761C5.93483 7.36528 6.08671 7.26015 6.25499 7.18869C6.42327 7.11723 6.60438 7.08095 6.7872 7.08208C6.96688 7.08242 7.14466 7.11889 7.30997 7.18931L25.8481 14.8297H7.44401Z" fill="white"/>
</svg>
