
<svg fill="none" viewBox="0 0 33 32" height="32" width="33" xmlns="http://www.w3.org/2000/svg">
  <path d="M32.5053 11.8864C32.4031 11.5904 32.2172 11.3304 31.9702 11.1379C31.7231 10.9455 31.4255 10.8288 31.1135 10.8021L21.905 9.45887L17.7781 1.09187C17.6456 0.818249 17.4387 0.58749 17.1811 0.426027C16.9235 0.264565 16.6256 0.178928 16.3216 0.178928C16.0175 0.178928 15.7197 0.264565 15.4621 0.426027C15.2045 0.58749 14.9976 0.818249 14.865 1.09187L10.7382 9.44268L1.52962 10.8021C1.2301 10.8447 0.948506 10.9704 0.716797 11.1649C0.485088 11.3594 0.312542 11.615 0.218742 11.9026C0.132879 12.1837 0.125174 12.4828 0.196453 12.7679C0.267732 13.0531 0.415306 13.3134 0.623335 13.521L7.30722 19.9945L5.68885 29.1869C5.62351 29.4918 5.64767 29.8091 5.75841 30.1006C5.86916 30.3922 6.06178 30.6455 6.3131 30.8301C6.56442 31.0148 6.86374 31.1229 7.17505 31.1414C7.48635 31.16 7.79639 31.0882 8.06786 30.9347L16.3216 26.6136L24.5753 30.9347C24.8024 31.0628 25.0589 31.1298 25.3197 31.1289C25.6625 31.1301 25.9969 31.0225 26.2746 30.8214C26.5257 30.6415 26.72 30.3936 26.8347 30.1068C26.9494 29.8201 26.9797 29.5064 26.9219 29.203L25.3035 20.0107L31.9874 13.5372C32.2211 13.3392 32.3938 13.079 32.4855 12.7868C32.5771 12.4946 32.584 12.1824 32.5053 11.8864ZM22.5523 18.3599C22.365 18.5418 22.2245 18.7664 22.1427 19.0144C22.061 19.2624 22.0405 19.5265 22.083 19.7841L23.2482 26.5813L17.1631 23.3445C16.9266 23.2275 16.6663 23.1667 16.4025 23.1667C16.1386 23.1667 15.8783 23.2275 15.6418 23.3445L9.55676 26.5813L10.722 19.7841C10.7645 19.5265 10.7439 19.2624 10.6622 19.0144C10.5805 18.7664 10.44 18.5418 10.2527 18.3599L5.39754 13.5048L12.2109 12.5176C12.4731 12.4811 12.7223 12.3809 12.9367 12.2257C13.1512 12.0705 13.3243 11.8651 13.4409 11.6275L16.3216 5.46148L19.3641 11.6437C19.4807 11.8813 19.6538 12.0867 19.8682 12.2419C20.0827 12.3971 20.3319 12.4973 20.5941 12.5338L27.4074 13.521L22.5523 18.3599Z" fill="white"/>
</svg>
