<svg
   xmlns="http://www.w3.org/2000/svg"
   style="fill:none"
   version="1.1"
   viewBox="0 0 217.88348 60.233498"
   height="60.233498"
   width="217.88348">
  <path
     d="M 194.15429,0.00693662 C 183.5994,-0.21270508 172.61914,4.81553 167.22851,10.56553 c 34.05188,-13.6712096 43.74812,11.63249 43.48828,22.824219 -0.27043,11.647179 -12.36523,19.460938 -12.36523,19.460938 -1.468,0.6875 -2.89807,1.203175 -4.28906,1.546875 -1.39,0.3438 -2.92371,0.515625 -4.59571,0.515625 -2.015,0 -3.59142,-0.570338 -4.73242,-1.710938 -1.125,-1.1562 -1.72864,-2.742212 -1.80663,-4.757812 h 16.90038 v -3.46875 c 0,-2.5468 -0.47669,-4.70315 -1.42969,-6.46875 -0.953,-1.7656 -2.30663,-3.10935 -4.05663,-4.03125 -1.75,-0.9375 -3.83486,-1.40625 -6.25587,-1.40625 -2.469,0 -4.63414,0.515575 -6.49413,1.546875 -1.85901,1.0156 -3.31042,2.54685 -4.35742,4.59375 -1.031,2.0313 -1.54687,4.578125 -1.54687,7.640625 0,3.0157 0.56993,5.5157 1.71092,7.5 1.156,1.9844 2.74182,3.460987 4.75782,4.429687 2.031,0.9688 4.35937,1.453125 6.98437,1.453125 2.016,0 3.72681,-0.148412 5.13281,-0.445312 1.422,-0.2968 2.78113,-0.76565 4.07813,-1.40625 0,0 12.38759,-5.108385 17.86328,-21.179688 C 219.87063,26.472402 217.97024,9.412395 205.98828,2.94639 202.34853,0.98221642 198.28447,0.09288342 194.15429,0.00693662 Z M 63.328125,23.295999 v 36.46875 h 7.148438 v -36.46875 z m 18.257812,0 c -1.078101,0 -2.000023,0.250005 -2.765624,0.75 -0.75,0.48438 -1.125,1.398438 -1.125,2.742188 0,1.32813 0.375,2.249995 1.125,2.765625 0.765601,0.5 1.687523,0.75 2.765624,0.75 1.0625,0 1.976587,-0.25 2.742188,-0.75 0.765599,-0.51563 1.148438,-1.437495 1.148438,-2.765625 -10e-7,-1.34375 -0.382838,-2.257808 -1.148438,-2.742188 -0.7656,-0.499995 -1.679688,-0.75 -2.742188,-0.75 z M 0,25.499124 11.625,59.764749 h 7.921875 L 31.195313,25.499124 h -7.335938 l -6.492188,20.390625 c -0.109399,0.3594 -0.289062,1.01555 -0.539062,1.96875 -0.2344,0.9375 -0.476562,1.929663 -0.726562,2.976563 -0.234301,1.0469 -0.398488,1.914062 -0.492188,2.601562 -0.0938,-0.6875 -0.273463,-1.554662 -0.539062,-2.601562 -0.25,-1.0625 -0.5,-2.0625 -0.75,-3 -0.250001,-0.9531 -0.429663,-1.601513 -0.539063,-1.945313 L 7.335937,25.499124 Z m 45.773437,7.570313 c -2.4687,0 -4.632787,0.515575 -6.492187,1.546875 -1.8593,1.0156 -3.312575,2.54685 -4.359375,4.59375 -1.0313,2.0313 -1.546875,4.578125 -1.546875,7.640625 0,3.0157 0.570338,5.5157 1.710937,7.5 1.156301,1.9844 2.742213,3.460987 4.757813,4.429687 2.0313,0.9688 4.359375,1.453125 6.984375,1.453125 2.0156,0 3.726613,-0.148412 5.132812,-0.445312 1.4219,-0.2968 2.781225,-0.76565 4.078126,-1.40625 v -5.53125 c -1.468801,0.6875 -2.898463,1.203175 -4.289063,1.546875 -1.3906,0.3438 -2.92185,0.515625 -4.59375,0.515625 -2.0156,0 -3.593775,-0.570338 -4.734375,-1.710938 -1.125,-1.1562 -1.726588,-2.742212 -1.804688,-4.757812 h 16.898438 v -3.46875 c 0,-2.5468 -0.476487,-4.70315 -1.429688,-6.46875 -0.9531,-1.7656 -2.304687,-3.10935 -4.054687,-4.03125 -1.75,-0.9375 -3.835912,-1.40625 -6.257813,-1.40625 z m 57.703123,0 c -2.46899,0 -4.632885,0.515575 -6.492185,1.546875 -1.8594,1.0156 -3.31247,2.54685 -4.359375,4.59375 -1.031299,2.0313 -1.546875,4.578125 -1.546875,7.640625 0,3.0157 0.570238,5.5157 1.710938,7.5 1.156202,1.9844 2.742112,3.460987 4.757812,4.429687 2.03119,0.9688 4.359375,1.453125 6.984375,1.453125 2.016,0 3.72581,-0.148412 5.13281,-0.445312 1.422,-0.2968 2.78112,-0.76565 4.07812,-1.40625 v -5.53125 c -1.469,0.6875 -2.89906,1.203175 -4.28906,1.546875 -1.391,0.3438 -2.92175,0.515625 -4.59375,0.515625 -2.016,0 -3.59437,-0.570338 -4.73437,-1.710938 -1.125285,-1.1562 -1.726585,-2.742212 -1.804685,-4.757812 h 16.896475 v -3.46875 c 0,-2.5468 -0.47473,-4.70315 -1.42773,-6.46875 -0.953,-1.7656 -2.30468,-3.10935 -4.05468,-4.03125 -1.75,-0.9375 -3.83581,-1.40625 -6.25782,-1.40625 z m 32.4375,0 c -1.094,0 -2.1565,0.132837 -3.1875,0.398437 -1.015,0.2657 -1.94507,0.679688 -2.78906,1.242188 -0.828,0.5625 -1.52294,1.296925 -2.08594,2.203125 h -0.39843 l -0.96094,-3.351563 h -5.46094 v 26.203125 h 7.14649 V 47.436624 c 0,-2.7969 0.40027,-4.937475 1.19727,-6.421875 0.79698,-1.4844 2.28955,-2.226562 4.47656,-2.226562 1.453,0 2.5155,0.476587 3.1875,1.429687 0.687,0.9532 1.03125,2.367188 1.03125,4.242188 v 15.304687 h 7.14648 V 42.678812 c 0,-3.3594 -0.84973,-5.7969 -2.55273,-7.3125 -1.703,-1.5313 -3.953,-2.296875 -6.75001,-2.296875 z m 27.9375,0 c -2.547,0 -4.78956,0.476587 -6.72656,1.429687 -1.92201,0.9531 -3.42944,2.445363 -4.52344,4.476563 -1.078,2.0157 -1.61719,4.624925 -1.61719,7.828125 0,3.0937 0.47669,5.632787 1.42969,7.617187 0.953,1.9843 2.34287,3.45315 4.17187,4.40625 1.828,0.9375 4.03786,1.40625 6.63087,1.40625 1.829,0 3.33739,-0.15625 4.52538,-0.46875 1.203,-0.2969 2.35132,-0.789062 3.44533,-1.476562 v -6.117188 c -1.094,0.7187 -2.219,1.2812 -3.375,1.6875 -1.15602,0.3906 -2.47595,0.585938 -3.96094,0.585938 -1.18701,0 -2.19544,-0.273413 -3.02344,-0.820313 -0.828,-0.5625 -1.46239,-1.414087 -1.90039,-2.554687 -0.437,-1.1406 -0.6543,-2.5781 -0.6543,-4.3125 0,-1.7656 0.20238,-3.23435 0.60938,-4.40625 0.406,-1.1718 1.02356,-2.0468 1.85156,-2.625 0.828,-0.5937 1.86719,-0.890625 3.11719,-0.890625 0.969,0 1.93629,0.148512 2.90429,0.445312 0.969,0.2813 2.01758,0.648463 3.14258,1.101563 l 2.10742,-5.53125 c -0.984,-0.4843 -2.13879,-0.898488 -3.46679,-1.242188 -1.313,-0.3594 -2.87451,-0.539062 -4.68751,-0.539062 z M 78,33.561624 v 26.203125 h 7.148437 V 33.561624 Z m -32.179687,4.59375 c 1.125,0 2.046925,0.242163 2.765624,0.726563 0.734401,0.4844 1.281326,1.14065 1.640626,1.96875 0.374999,0.8282 0.570337,1.773437 0.585937,2.835937 H 40.78125 c 0.1407,-1.9063 0.664113,-3.304712 1.570313,-4.195312 0.921899,-0.8907 2.07815,-1.335938 3.46875,-1.335938 z m 57.703127,0 c 1.125,0 2.04663,0.242163 2.76563,0.726563 0.734,0.4844 1.27967,1.14065 1.63867,1.96875 0.375,0.8282 0.57289,1.773437 0.58789,2.835937 H 98.484375 c 0.1406,-1.9063 0.66247,-3.304712 1.568365,-4.195312 0.922,-0.8907 2.0807,-1.335938 3.4707,-1.335938 z m 84.60937,0 c 1.124,0 2.04662,0.242163 2.76562,0.726563 0.73501,0.4844 1.28063,1.14065 1.64063,1.96875 0.375,0.8282 0.56994,1.773437 0.58594,2.835937 h -10.03321 c 0.141,-1.9063 0.66527,-3.304712 1.57227,-4.195312 0.922,-0.8907 2.07775,-1.335938 3.46875,-1.335938 z"
     style="fill:#ffffff" />
</svg>
